<?xml version="1.0" standalone="no"?>
<!DOCTYPE svg PUBLIC "-//W3C//DTD SVG 20010904//EN"
 "http://www.w3.org/TR/2001/REC-SVG-20010904/DTD/svg10.dtd">
<svg version="1.0" xmlns="http://www.w3.org/2000/svg"
 width="1757.000000pt" height="381.000000pt" viewBox="0 0 1757.000000 381.000000"
 preserveAspectRatio="xMidYMid meet">
<metadata>
Created by potrace 1.15, written by Peter Selinger 2001-2017
</metadata>
<g transform="translate(0.000000,381.000000) scale(0.100000,-0.100000)"
fill="#000000" stroke="none">
<path d="M925 3277 c-207 -69 -333 -271 -296 -474 26 -143 111 -256 238 -316
64 -30 75 -32 178 -32 103 0 114 2 178 32 127 60 212 173 238 316 33 180 -67
369 -238 450 -59 27 -80 32 -163 34 -59 2 -110 -2 -135 -10z m267 -90 c105
-47 178 -144 200 -265 9 -50 8 -72 -5 -129 -42 -172 -193 -283 -367 -271 -165
12 -291 128 -322 296 -30 159 81 336 241 387 70 22 183 15 253 -18z"/>
<path d="M1012 2988 c-41 -31 -55 -58 -30 -58 6 0 20 7 30 17 17 15 18 13 18
-75 0 -91 0 -92 -25 -92 -18 0 -25 -5 -25 -20 0 -18 7 -20 75 -20 68 0 75 2
75 20 0 15 -7 20 -25 20 l-25 0 0 120 c0 136 -2 139 -68 88z"/>
<path d="M8425 3277 c-207 -69 -333 -270 -296 -474 7 -37 23 -90 36 -118 23
-47 24 -51 7 -66 -38 -36 -1174 -940 -1188 -946 -8 -3 -30 9 -51 27 -20 18
-62 45 -92 59 -50 23 -68 26 -171 26 -110 0 -118 -2 -181 -32 -86 -42 -178
-138 -210 -220 -34 -83 -34 -243 0 -326 32 -82 124 -178 210 -220 63 -30 72
-32 181 -32 109 0 118 2 181 32 87 43 178 138 209 220 44 114 36 274 -19 369
l-18 30 602 482 c332 265 606 482 610 482 4 0 24 -14 45 -30 21 -17 65 -43 97
-58 52 -24 69 -27 168 -27 99 0 116 3 168 27 32 15 76 41 97 58 21 16 41 30
45 30 4 0 278 -217 610 -482 l602 -482 -18 -30 c-55 -95 -63 -255 -19 -369 31
-82 122 -177 209 -220 63 -30 72 -32 181 -32 109 0 118 2 181 32 86 42 178
138 210 220 34 83 34 243 0 326 -32 82 -124 178 -210 220 -63 30 -71 32 -181
32 -103 0 -121 -3 -171 -26 -30 -14 -72 -41 -92 -59 -21 -18 -43 -30 -51 -27
-14 6 -1150 910 -1188 946 -17 15 -16 19 7 66 102 211 11 468 -202 568 -59 27
-80 32 -163 34 -59 2 -110 -2 -135 -10z m267 -90 c105 -47 178 -144 200 -265
9 -50 8 -72 -5 -129 -42 -172 -193 -283 -367 -271 -165 12 -291 128 -322 296
-30 159 81 336 241 387 70 22 183 15 253 -18z m-1868 -1506 c72 -35 131 -94
167 -169 20 -39 24 -63 24 -142 0 -79 -4 -103 -24 -142 -37 -75 -95 -134 -169
-170 -59 -30 -76 -33 -152 -33 -76 0 -93 3 -152 33 -199 98 -260 344 -129 518
103 137 282 181 435 105z m3750 0 c72 -35 131 -94 167 -169 20 -39 24 -63 24
-142 0 -79 -4 -103 -24 -142 -37 -75 -95 -134 -169 -170 -59 -30 -76 -33 -152
-33 -76 0 -93 3 -152 33 -199 98 -260 344 -129 518 103 137 282 181 435 105z"/>
<path d="M8506 2931 c-36 -48 -66 -93 -66 -100 0 -7 22 -11 60 -11 l60 0 0
-40 c0 -36 3 -40 25 -40 23 0 25 4 25 40 0 33 3 40 20 40 13 0 20 7 20 20 0
13 -7 20 -20 20 -18 0 -20 7 -20 80 0 72 -2 80 -19 80 -12 0 -42 -31 -85 -89z"/>
<path d="M6633 1510 c-34 -14 -53 -61 -53 -132 0 -82 24 -124 75 -134 70 -13
122 60 112 156 -12 100 -60 140 -134 110z m71 -52 c10 -14 16 -44 16 -78 0
-83 -44 -129 -81 -84 -18 22 -18 146 0 167 19 24 47 21 65 -5z"/>
<path d="M10350 1500 c0 -17 7 -20 40 -20 l41 0 -31 -44 c-38 -57 -38 -66 4
-66 41 0 60 -21 52 -55 -7 -26 -41 -41 -76 -32 -13 3 -24 -1 -30 -13 -8 -14
-5 -19 13 -24 93 -25 166 40 132 119 -9 22 -23 37 -39 41 l-26 6 30 38 c48 60
42 70 -40 70 -63 0 -70 -2 -70 -20z"/>
<path d="M15925 3277 c-207 -69 -333 -271 -296 -474 17 -93 56 -169 117 -231
58 -57 152 -107 221 -118 l43 -6 0 -328 0 -328 -43 -6 c-69 -11 -163 -61 -221
-118 -61 -62 -100 -138 -117 -231 -33 -180 67 -369 238 -450 64 -30 75 -32
178 -32 103 0 114 2 178 32 171 81 271 270 238 450 -17 93 -56 169 -117 231
-58 57 -152 107 -221 118 l-43 6 0 328 0 328 43 6 c69 11 163 61 221 118 61
62 100 138 117 231 33 180 -67 369 -238 450 -59 27 -80 32 -163 34 -59 2 -110
-2 -135 -10z m267 -90 c105 -47 178 -144 200 -265 9 -50 8 -72 -5 -129 -42
-172 -193 -283 -367 -271 -165 12 -291 128 -322 296 -30 159 81 336 241 387
70 22 183 15 253 -18z m0 -1500 c105 -47 178 -144 200 -265 9 -50 8 -72 -5
-129 -42 -172 -193 -283 -367 -271 -165 12 -291 128 -322 296 -30 159 81 336
241 387 70 22 183 15 253 -18z"/>
<path d="M15980 2950 l0 -70 34 0 c38 0 66 -21 66 -50 0 -30 -28 -50 -71 -50
-33 0 -40 -3 -37 -17 4 -23 41 -28 90 -14 43 13 60 38 60 89 0 42 -38 82 -78
82 -19 0 -24 5 -24 25 0 23 3 25 50 25 47 0 50 2 50 25 0 24 -2 25 -70 25
l-70 0 0 -70z"/>
<path d="M15992 1509 c-37 -14 -21 -34 29 -34 39 0 44 -3 47 -24 6 -39 -6 -66
-58 -132 -27 -35 -50 -67 -50 -71 0 -5 38 -8 85 -8 80 0 85 1 85 21 0 19 -5
21 -50 17 -28 -1 -50 -1 -50 1 0 3 11 16 24 30 36 38 66 102 66 138 0 56 -65
88 -128 62z"/>
<path d="M8683 2337 c-41 -31 -55 -57 -31 -57 6 0 20 7 30 17 10 9 19 14 21
12 1 -2 1 -43 -1 -91 -3 -86 -4 -88 -28 -88 -17 0 -24 -5 -24 -20 0 -18 7 -20
75 -20 68 0 75 2 75 20 0 16 -7 20 -30 20 l-30 0 0 120 c0 66 -3 120 -7 120
-5 0 -27 -15 -50 -33z"/>
<path d="M16183 2337 c-41 -31 -55 -57 -31 -57 6 0 20 7 30 17 10 9 19 14 21
12 1 -2 1 -43 -1 -91 -3 -86 -4 -88 -28 -88 -17 0 -24 -5 -24 -20 0 -18 7 -20
75 -20 68 0 75 2 75 20 0 16 -7 20 -30 20 l-30 0 0 120 c0 66 -3 120 -7 120
-5 0 -27 -15 -50 -33z"/>
</g>
</svg>
