<?xml version="1.0" standalone="no"?>
<!DOCTYPE svg PUBLIC "-//W3C//DTD SVG 20010904//EN"
 "http://www.w3.org/TR/2001/REC-SVG-20010904/DTD/svg10.dtd">
<svg version="1.0" xmlns="http://www.w3.org/2000/svg"
 width="2036.000000pt" height="393.000000pt" viewBox="0 0 2036.000000 393.000000"
 preserveAspectRatio="xMidYMid meet">
<metadata>
Created by potrace 1.15, written by Peter Selinger 2001-2017
</metadata>
<g transform="translate(0.000000,393.000000) scale(0.100000,-0.100000)"
fill="#000000" stroke="none">
<path d="M9793 3665 c-77 -21 -130 -51 -188 -106 -80 -76 -135 -198 -135 -300
0 -33 -3 -38 -27 -43 -16 -3 -1839 -307 -4053 -676 -2214 -369 -4037 -673
-4052 -676 -25 -5 -29 -1 -57 60 -59 130 -181 224 -324 249 -269 46 -526 -210
-480 -478 32 -186 171 -326 356 -358 208 -35 416 105 472 318 8 33 15 76 15
96 0 33 3 38 28 43 103 22 8018 1336 8026 1333 11 -4 -3559 -1197 -3581 -1197
-6 0 -22 19 -36 43 -83 141 -270 228 -427 199 -184 -34 -321 -172 -353 -355
-37 -221 124 -440 356 -480 259 -44 508 189 483 453 l-6 65 1838 613 c1010
336 1842 612 1849 612 6 0 22 -19 36 -43 31 -53 111 -128 163 -155 39 -19 84
-35 137 -46 l27 -6 0 -325 0 -325 -27 -6 c-109 -23 -180 -62 -247 -133 -153
-164 -151 -411 5 -576 95 -101 242 -151 371 -127 183 34 319 172 351 357 33
192 -95 399 -284 459 -24 8 -56 17 -71 20 l-28 6 0 325 0 325 28 6 c52 11 97
27 136 46 52 27 132 102 163 155 14 24 30 43 36 43 7 0 839 -276 1849 -612
l1838 -613 -6 -65 c-20 -216 138 -415 361 -453 270 -46 527 215 477 485 -34
183 -172 319 -357 351 -156 27 -340 -60 -422 -200 -14 -24 -30 -43 -36 -43
-22 0 -3592 1193 -3581 1197 8 3 7923 -1311 8027 -1333 24 -5 27 -10 27 -43 0
-53 26 -147 57 -203 80 -148 272 -240 435 -210 183 34 319 172 351 357 37 219
-126 438 -356 478 -179 30 -369 -75 -448 -249 -28 -61 -32 -65 -57 -60 -15 3
-1838 307 -4052 676 -2214 369 -4037 673 -4052 676 -25 5 -28 10 -28 43 0 48
-24 141 -51 193 -29 58 -110 140 -167 171 -99 54 -209 69 -309 42z m244 -90
c73 -33 138 -96 175 -173 28 -57 32 -74 32 -147 0 -73 -4 -90 -32 -147 -38
-78 -102 -140 -180 -176 -81 -37 -193 -37 -274 0 -78 36 -142 98 -180 176 -28
57 -32 75 -32 146 0 66 5 91 26 138 48 104 147 186 250 208 62 13 155 2 215
-25z m-9000 -1500 c73 -33 138 -96 175 -173 28 -57 32 -74 32 -147 0 -73 -4
-90 -32 -147 -38 -78 -102 -140 -180 -176 -81 -37 -193 -37 -274 0 -78 36
-142 98 -180 176 -28 57 -32 75 -32 146 0 66 5 91 26 138 48 104 147 186 250
208 62 13 155 2 215 -25z m4500 0 c73 -33 138 -96 175 -173 28 -57 32 -74 32
-147 0 -73 -4 -90 -32 -147 -38 -78 -102 -140 -180 -176 -81 -37 -193 -37
-274 0 -78 36 -142 98 -180 176 -28 57 -32 75 -32 146 0 66 5 91 26 138 48
104 147 186 250 208 62 13 155 2 215 -25z m4500 0 c73 -33 138 -96 175 -173
28 -57 32 -74 32 -147 0 -73 -4 -90 -32 -147 -38 -78 -102 -140 -180 -176 -81
-37 -193 -37 -274 0 -78 36 -142 98 -180 176 -28 57 -32 75 -32 146 0 66 5 91
26 138 48 104 147 186 250 208 62 13 155 2 215 -25z m4500 0 c73 -33 138 -96
175 -173 28 -57 32 -74 32 -147 0 -73 -4 -90 -32 -147 -38 -78 -102 -140 -180
-176 -81 -37 -193 -37 -274 0 -78 36 -142 98 -180 176 -28 57 -32 75 -32 146
0 66 5 91 26 138 48 104 147 186 250 208 62 13 155 2 215 -25z m4500 0 c73
-33 138 -96 175 -173 28 -57 32 -74 32 -147 0 -73 -4 -90 -32 -147 -38 -78
-102 -140 -180 -176 -81 -37 -193 -37 -274 0 -78 36 -142 98 -180 176 -28 57
-32 75 -32 146 0 66 5 91 26 138 48 104 147 186 250 208 62 13 155 2 215 -25z"/>
<path d="M9830 3335 c0 -64 0 -65 28 -65 65 0 96 -63 48 -96 -14 -8 -37 -14
-53 -12 -20 2 -29 -2 -31 -14 -5 -27 86 -25 120 2 50 39 38 133 -19 145 -50
12 -54 15 -51 37 3 20 10 23 51 26 39 3 47 6 47 23 0 17 -7 19 -70 19 l-70 0
0 -65z"/>
<path d="M835 1876 c-45 -45 -45 -177 1 -223 31 -31 84 -31 121 1 27 23 28 29
28 109 0 77 -3 88 -24 111 -33 35 -92 36 -126 2z m88 -21 c32 -31 28 -166 -5
-186 -40 -26 -68 14 -68 96 0 87 34 129 73 90z"/>
<path d="M5356 1867 c-25 -21 -37 -38 -32 -46 6 -9 14 -8 32 4 l25 16 -3 -88
c-3 -83 -4 -88 -25 -91 -13 -2 -23 -10 -23 -18 0 -11 17 -14 75 -14 60 0 75 3
75 15 0 9 -9 15 -25 15 l-25 0 0 120 c0 138 -6 145 -74 87z"/>
<path d="M9838 1889 c-9 -5 -15 -16 -12 -23 4 -11 11 -11 34 -3 22 8 32 8 44
-2 32 -27 14 -87 -49 -166 -54 -67 -55 -65 39 -65 70 0 86 3 86 15 0 11 -12
15 -51 15 l-51 0 31 39 c61 76 76 146 41 181 -22 22 -82 27 -112 9z"/>
<path d="M14320 1885 c0 -11 12 -15 46 -15 l46 0 -31 -42 c-36 -49 -39 -68
-10 -68 37 0 59 -19 59 -50 0 -35 -26 -53 -73 -48 -23 2 -32 -1 -32 -12 0 -11
14 -16 52 -18 45 -3 56 1 78 22 32 32 34 87 5 116 -11 11 -27 20 -35 20 -21 0
-19 10 15 54 17 22 30 43 30 48 0 4 -34 8 -75 8 -60 0 -75 -3 -75 -15z"/>
<path d="M18857 1819 c-81 -112 -81 -109 -8 -109 l61 0 0 -40 c0 -36 3 -40 25
-40 22 0 25 4 25 36 0 27 5 37 20 41 11 3 20 11 20 18 0 7 -9 15 -20 18 -18 5
-20 14 -20 81 0 72 -1 76 -22 76 -17 0 -38 -22 -81 -81z"/>
<path d="M10012 2739 c-35 -14 -16 -30 28 -23 32 5 40 3 50 -15 16 -31 -3 -81
-56 -147 -24 -29 -44 -58 -44 -64 0 -6 33 -10 80 -10 64 0 80 3 80 15 0 11
-12 15 -49 15 l-50 0 40 58 c50 73 61 130 30 161 -22 22 -68 27 -109 10z"/>
<path d="M19026 1216 c-43 -37 -43 -68 0 -40 13 9 26 15 27 13 1 -2 1 -43 -1
-91 -3 -86 -4 -88 -28 -88 -15 0 -24 -6 -24 -15 0 -12 15 -15 75 -15 58 0 75
3 75 14 0 9 -12 16 -27 18 l-28 3 -3 118 c-2 84 -6 117 -15 117 -7 -1 -30 -16
-51 -34z"/>
</g>
</svg>
