<?xml version="1.0" standalone="no"?>
<!DOCTYPE svg PUBLIC "-//W3C//DTD SVG 20010904//EN"
 "http://www.w3.org/TR/2001/REC-SVG-20010904/DTD/svg10.dtd">
<svg version="1.0" xmlns="http://www.w3.org/2000/svg"
 width="2070.000000pt" height="208.000000pt" viewBox="0 0 2070.000000 208.000000"
 preserveAspectRatio="xMidYMid meet">
<metadata>
Created by potrace 1.15, written by Peter Selinger 2001-2017
</metadata>
<g transform="translate(0.000000,208.000000) scale(0.100000,-0.100000)"
fill="#000000" stroke="none">
<path d="M835 1443 c-77 -28 -139 -68 -184 -119 -187 -213 -125 -537 127 -661
74 -37 79 -38 186 -38 104 0 115 2 179 32 171 81 271 268 240 449 -24 139
-113 257 -240 317 -59 27 -81 32 -163 34 -72 3 -107 -1 -145 -14z m275 -85
c74 -34 136 -96 173 -176 26 -55 31 -78 31 -142 0 -64 -5 -87 -31 -142 -37
-79 -98 -142 -173 -177 -47 -22 -69 -26 -145 -26 -76 0 -98 4 -145 26 -75 35
-136 98 -173 177 -88 189 12 411 218 479 63 20 180 12 245 -19z"/>
<path d="M923 1178 c-47 -23 -67 -132 -37 -207 28 -71 116 -81 155 -18 16 26
19 46 17 110 -3 72 -6 81 -31 103 -30 25 -67 30 -104 12z m78 -50 c7 -13 12
-48 12 -78 0 -63 -15 -100 -43 -100 -31 0 -50 39 -50 100 0 61 19 100 50 100
11 0 25 -10 31 -22z"/>
<path d="M4595 1447 c-207 -69 -333 -269 -298 -473 24 -139 113 -257 240 -317
64 -30 75 -32 179 -32 107 0 112 1 186 38 314 155 314 599 1 754 -69 34 -84
38 -172 40 -60 2 -111 -2 -136 -10z m265 -89 c74 -34 136 -96 173 -176 26 -55
31 -78 31 -142 0 -64 -5 -87 -31 -142 -37 -79 -98 -142 -173 -177 -47 -22 -69
-26 -145 -26 -76 0 -98 4 -145 26 -75 35 -136 98 -173 177 -88 189 12 411 218
479 63 20 180 12 245 -19z"/>
<path d="M4677 1154 c-36 -28 -45 -40 -36 -50 8 -10 15 -11 30 -1 10 6 19 15
19 19 0 5 3 8 8 8 4 0 6 -40 4 -90 -3 -88 -4 -90 -28 -90 -17 0 -24 -5 -24
-20 0 -18 7 -20 75 -20 68 0 75 2 75 20 0 15 -7 20 -25 20 l-25 0 0 120 c0
138 -2 140 -73 84z"/>
<path d="M8335 1443 c-77 -28 -139 -68 -184 -119 -187 -213 -125 -537 127
-661 74 -37 79 -38 187 -38 108 0 113 1 187 38 314 155 314 599 1 754 -69 34
-84 38 -172 40 -73 3 -108 -1 -146 -14z m279 -87 c268 -131 267 -501 -2 -633
-50 -24 -69 -28 -147 -28 -76 0 -99 4 -146 26 -75 35 -134 96 -172 177 -55
119 -38 253 48 366 90 118 280 160 419 92z"/>
<path d="M8412 1179 c-37 -14 -21 -34 29 -34 42 0 44 -1 47 -33 4 -35 -17 -75
-74 -143 -19 -23 -34 -45 -34 -50 0 -5 38 -9 85 -9 80 0 85 1 85 21 0 19 -5
21 -50 17 -28 -1 -50 -2 -50 0 0 2 11 15 25 30 35 37 65 102 65 139 0 56 -65
88 -128 62z"/>
<path d="M12085 1443 c-77 -28 -139 -68 -184 -119 -187 -213 -125 -537 127
-661 74 -37 79 -38 186 -38 104 0 115 2 179 32 171 81 271 268 240 449 -24
139 -113 257 -240 317 -59 27 -81 32 -163 34 -72 3 -107 -1 -145 -14z m277
-85 c74 -34 133 -95 171 -176 26 -55 31 -78 31 -142 0 -64 -5 -87 -31 -142
-38 -81 -97 -142 -172 -177 -47 -22 -70 -26 -146 -26 -76 0 -99 4 -146 26 -75
35 -134 96 -171 176 -56 118 -38 256 47 367 89 117 275 159 417 94z"/>
<path d="M12140 1170 c0 -17 7 -20 46 -20 l45 0 -30 -37 c-40 -48 -41 -73 -3
-73 34 0 52 -16 52 -46 0 -31 -24 -47 -65 -42 -24 3 -36 -1 -40 -11 -9 -22 15
-32 65 -27 55 5 90 41 90 91 0 35 -36 75 -69 75 -9 0 -12 3 -6 8 22 15 65 74
65 88 0 11 -17 14 -75 14 -68 0 -75 -2 -75 -20z"/>
<path d="M15835 1443 c-77 -28 -139 -68 -184 -119 -187 -213 -125 -537 127
-661 74 -37 79 -38 186 -38 104 0 115 2 179 32 171 81 271 268 240 449 -24
139 -113 257 -240 317 -59 27 -81 32 -163 34 -72 3 -107 -1 -145 -14z m277
-85 c74 -34 133 -95 171 -176 26 -55 31 -78 31 -142 0 -64 -5 -87 -31 -142
-38 -81 -97 -142 -172 -177 -47 -22 -70 -26 -146 -26 -76 0 -98 4 -145 26 -75
35 -136 98 -173 177 -88 189 12 411 218 479 63 20 179 12 247 -19z"/>
<path d="M15926 1103 c-36 -49 -65 -94 -66 -100 0 -9 18 -13 60 -13 l60 0 0
-40 c0 -36 3 -40 25 -40 23 0 25 4 25 40 0 33 3 40 20 40 13 0 20 7 20 20 0
13 -7 20 -20 20 -18 0 -20 7 -20 80 0 73 -2 80 -20 80 -13 0 -41 -29 -84 -87z"/>
<path d="M19595 1447 c-207 -69 -333 -269 -298 -473 24 -139 113 -257 240
-317 64 -30 75 -32 179 -32 107 0 112 1 186 38 314 155 314 599 1 754 -69 34
-84 38 -172 40 -60 2 -111 -2 -136 -10z m265 -89 c74 -34 136 -96 173 -176 26
-55 31 -78 31 -142 0 -64 -5 -87 -31 -142 -37 -79 -98 -142 -173 -177 -47 -22
-69 -26 -145 -26 -76 0 -99 4 -146 26 -75 35 -134 96 -172 177 -55 119 -38
253 48 366 88 116 276 159 415 94z"/>
<path d="M19650 1120 l0 -70 34 0 c38 0 66 -21 66 -50 0 -30 -28 -50 -71 -50
-40 0 -55 -22 -23 -34 77 -30 162 44 135 117 -12 30 -48 57 -77 57 -17 0 -20
5 -16 25 4 22 9 25 48 25 40 0 44 2 44 25 0 24 -2 25 -70 25 l-70 0 0 -70z"/>
</g>
</svg>
